# xmcd CD database file
#
# Track frame offsets:
#	150
#	23021
#	40339
#	66852
#	87679
#	107181
#	139288
#	156447
#	175597
#	194506
#	212227
#	225384
#	252556
#	276714
#	303904
#	330831
#
# Disc length: 4757 seconds
#
# Revision: 2
# Processed by: cddbd v1.5.2PL0 Copyright (c) Steve Scherf et al.
# Submitted via: CDex 1.70beta2
#
DISCID=ed129310
DTITLE=Vari - Salsa 2006 6
DYEAR=2006
DGENRE=Salsa
TTITLE0=Marc Anthony/Que Precio Tiene El Cielo
TTITLE1=Marc Anthony/Dimelo
TTITLE2=Maikel Blanko/Esto Esta''
TTITLE3=Maikel Blanko/Brujeria
TTITLE4=Haydee' Milanes/La Musica
TTITLE5=Pupy/A La Italiana
TTITLE6=Salsa Celtica/Cafe' Colando
TTITLE7=Rey Ruizo/Corazon Arrepentid
TTITLE8=Charlie Cruz/Dejala Que Baile
TTITLE9=El Sindacato/De Aqui Pa Alla'
TTITLE10=En Mena/En Internet
TTITLE11=Manuelle-Palmieri/Dos Generaciones
TTITLE12=Vanessa Formell/Esperando Por Ti
TTITLE13=Conexion Salsera/Gusanos o Mariposas
TTITLE14=Wayne Gorbea7Pa' Puerto Rico
TTITLE15=Steve Guasch/Charly The Giant
EXTD=YEAR: 2006
EXTT0=
EXTT1=
EXTT2=
EXTT3=
EXTT4=
EXTT5=
EXTT6=
EXTT7=
EXTT8=
EXTT9=
EXTT10=
EXTT11=
EXTT12=
EXTT13=
EXTT14=
EXTT15=
PLAYORDER=
